<svg width="182" height="68" viewBox="0 0 182 68" fill="none" xmlns="http://www.w3.org/2000/svg">
<foreignObject x="-8" y="-8" width="198" height="84"><div xmlns="http://www.w3.org/1999/xhtml" style="backdrop-filter:blur(4px);clip-path:url(#bgblur_0_369_228_clip_path);height:100%;width:100%"></div></foreignObject><path data-figma-bg-blur-radius="8" d="M28 3H154C167.807 3 179 14.1929 179 28V40C179 53.8071 167.807 65 154 65H28C14.1929 65 3 53.8071 3 40V28C3 14.1929 14.1929 3 28 3Z" fill="#A6A6A6" fill-opacity="0.48" stroke="url(#paint0_linear_369_228)" stroke-width="6"/>
<path d="M36.96 19H43.96V47H36.96V19ZM53.48 19H61.4L50.04 32.12L62 47H53.8L42 32.32L53.48 19ZM69.0088 41.24C69.0088 41.72 69.1288 42.1333 69.3688 42.48C69.6088 42.8 69.9288 43.0533 70.3288 43.24C70.7288 43.4 71.1688 43.48 71.6488 43.48C72.3421 43.48 72.9821 43.3333 73.5688 43.04C74.1554 42.7467 74.6354 42.3067 75.0088 41.72C75.3821 41.1333 75.5688 40.4133 75.5688 39.56L76.2088 41.96C76.2088 43.1333 75.8888 44.1333 75.2488 44.96C74.6088 45.76 73.7821 46.3733 72.7688 46.8C71.7554 47.2 70.6621 47.4 69.4888 47.4C68.3154 47.4 67.2221 47.1867 66.2088 46.76C65.2221 46.3067 64.4221 45.64 63.8088 44.76C63.2221 43.88 62.9288 42.8133 62.9288 41.56C62.9288 39.8 63.5554 38.4133 64.8088 37.4C66.0621 36.36 67.8354 35.84 70.1288 35.84C71.2488 35.84 72.2488 35.9467 73.1288 36.16C74.0354 36.3733 74.8088 36.64 75.4488 36.96C76.0888 37.28 76.5688 37.6133 76.8888 37.96V40.64C76.2488 40.16 75.5021 39.8 74.6488 39.56C73.8221 39.2933 72.9421 39.16 72.0088 39.16C71.2888 39.16 70.7154 39.24 70.2888 39.4C69.8621 39.56 69.5421 39.8 69.3288 40.12C69.1154 40.4133 69.0088 40.7867 69.0088 41.24ZM66.3288 34.24L64.2888 30.2C65.3288 29.6933 66.5821 29.2133 68.0488 28.76C69.5154 28.3067 71.1154 28.08 72.8488 28.08C74.4754 28.08 75.9288 28.32 77.2088 28.8C78.4888 29.2533 79.5021 29.92 80.2488 30.8C80.9954 31.68 81.3688 32.76 81.3688 34.04V47H75.5688V35.4C75.5688 34.9467 75.4888 34.56 75.3288 34.24C75.1954 33.8933 74.9821 33.6 74.6888 33.36C74.3954 33.12 74.0221 32.9467 73.5688 32.84C73.1421 32.7333 72.6488 32.68 72.0888 32.68C71.2621 32.68 70.4488 32.7733 69.6488 32.96C68.8754 33.1467 68.1954 33.3733 67.6088 33.64C67.0221 33.88 66.5954 34.08 66.3288 34.24ZM104.536 28.6L92.5359 55.8H86.4559L90.9359 45.52L82.9759 28.6H89.6159L95.5759 43.36L92.4559 43.32L98.3359 28.6H104.536ZM106.555 15.8H112.635V47H106.555V15.8ZM116.977 21.68C116.977 20.72 117.323 19.9467 118.017 19.36C118.71 18.7467 119.537 18.44 120.497 18.44C121.483 18.44 122.31 18.7467 122.977 19.36C123.67 19.9467 124.017 20.72 124.017 21.68C124.017 22.64 123.67 23.4267 122.977 24.04C122.31 24.6533 121.483 24.96 120.497 24.96C119.537 24.96 118.71 24.6533 118.017 24.04C117.323 23.4267 116.977 22.64 116.977 21.68ZM117.577 28.6H123.417V47H117.577V28.6ZM137.751 47.4C135.618 47.4 133.765 47.0133 132.191 46.24C130.645 45.44 129.445 44.32 128.591 42.88C127.738 41.44 127.311 39.7467 127.311 37.8C127.311 35.8267 127.725 34.12 128.551 32.68C129.378 31.24 130.565 30.1333 132.111 29.36C133.685 28.5867 135.538 28.2 137.671 28.2C139.805 28.2 141.605 28.5733 143.071 29.32C144.538 30.04 145.658 31.0933 146.431 32.48C147.205 33.8667 147.591 35.5467 147.591 37.52C147.591 37.8133 147.591 38.1067 147.591 38.4C147.591 38.6667 147.565 38.8933 147.511 39.08H130.711V35.72H142.071L140.631 37.56C140.765 37.3733 140.871 37.1467 140.951 36.88C141.058 36.5867 141.111 36.3467 141.111 36.16C141.111 35.36 140.965 34.6667 140.671 34.08C140.378 33.4933 139.965 33.04 139.431 32.72C138.898 32.4 138.271 32.24 137.551 32.24C136.645 32.24 135.885 32.44 135.271 32.84C134.658 33.24 134.191 33.8533 133.871 34.68C133.578 35.48 133.418 36.4933 133.391 37.72C133.391 38.84 133.551 39.8 133.871 40.6C134.191 41.4 134.671 42.0133 135.311 42.44C135.951 42.84 136.738 43.04 137.671 43.04C138.738 43.04 139.645 42.84 140.391 42.44C141.165 42.04 141.778 41.44 142.231 40.64L147.631 41.96C146.671 43.7733 145.365 45.1333 143.711 46.04C142.085 46.9467 140.098 47.4 137.751 47.4Z" fill="white"/>
<defs>
<clipPath id="bgblur_0_369_228_clip_path" transform="translate(8 8)"><path d="M28 3H154C167.807 3 179 14.1929 179 28V40C179 53.8071 167.807 65 154 65H28C14.1929 65 3 53.8071 3 40V28C3 14.1929 14.1929 3 28 3Z"/>
</clipPath><linearGradient id="paint0_linear_369_228" x1="91" y1="68" x2="91" y2="0" gradientUnits="userSpaceOnUse">
<stop stop-color="#5F90EA"/>
<stop offset="1" stop-color="white"/>
</linearGradient>
</defs>
</svg>
