<svg width="61" height="57" viewBox="0 0 61 57" fill="none" xmlns="http://www.w3.org/2000/svg">
<path d="M39.6123 18.5654C42.1864 17.5591 45.1812 17.2153 48.0117 17.6943C50.8336 18.1719 53.4409 19.4563 55.3428 21.6572C57.2361 23.8483 58.5341 27.0679 58.5342 31.6113V55.0029H49.0928V35.8809C49.0928 32.4396 48.0577 29.7552 46.334 27.9365C44.6126 26.1204 42.3103 25.2842 40.0273 25.3652C35.4088 25.5293 31.0684 29.3855 31.0684 35.8809V55.0029H21.6582V18.7041H31.1582L31.0693 22.4414L33.8828 23.2002C34.9795 21.2052 37.0298 19.5751 39.6123 18.5654ZM11.2881 18.7041V55.0029H1.68945V18.7041H11.2881ZM6.30176 1.5C7.57634 1.50064 8.79803 2.00629 9.69727 2.90332C10.5961 3.80013 11.0993 5.01501 11.0986 6.28027C11.098 7.54569 10.5933 8.76032 9.69336 9.65625C8.79323 10.5523 7.57138 11.0563 6.29688 11.0557C5.02238 11.055 3.80152 10.5493 2.90234 9.65234C2.00333 8.7555 1.49937 7.54081 1.5 6.27539C1.50063 5.00998 2.00538 3.79536 2.90527 2.89941C3.80537 2.00332 5.02723 1.49941 6.30176 1.5Z" fill="#40415A" stroke="white" stroke-width="3"/>
</svg>
